<svg width="152" height="85" viewBox="0 0 152 85" fill="none" xmlns="http://www.w3.org/2000/svg">
<rect x="5" y="60" width="147" height="2" fill="#DACAAA"/>
<path d="M4.55254 64.55C4.18587 64.55 3.65254 64.5 2.95254 64.4C2.25254 64.3 1.61921 64.0833 1.05254 63.75C0.452539 63.4167 0.152539 62.8833 0.152539 62.15C0.152539 61.75 0.252539 61.4333 0.452539 61.2C0.585872 61.0333 0.719206 60.95 0.852539 60.95C0.985872 60.95 1.03587 61.0333 1.00254 61.2C0.869206 61.7 1.05254 62.1667 1.55254 62.6C2.01921 63.0667 2.48587 63.3667 2.95254 63.5C3.48587 63.6333 4.05254 63.7 4.65254 63.7C5.95254 63.7 7.15254 63.3667 8.25254 62.7C9.38587 62.0333 10.3859 61.2 11.2525 60.2C10.0192 59.3333 8.91921 58.25 7.95254 56.95C7.01921 55.65 6.55254 54.1833 6.55254 52.55C6.55254 52.05 6.60254 51.55 6.70254 51.05C7.06921 49.25 7.98587 47.85 9.45254 46.85C10.2192 46.3167 11.0859 46.05 12.0525 46.05C12.6859 46.05 13.2525 46.1667 13.7525 46.4C14.2859 46.6 14.6525 46.85 14.8525 47.15V47.2C14.8525 47.3333 14.7859 47.4667 14.6525 47.6C14.5192 47.7 14.4192 47.7167 14.3525 47.65C14.1192 47.2167 13.6692 47 13.0025 47C12.6359 47 12.2359 47.0833 11.8025 47.25C11.3692 47.3833 10.9692 47.6333 10.6025 48C10.1692 48.3667 9.81921 48.8333 9.55254 49.4C9.28587 49.9333 9.06921 50.5 8.90254 51.1C8.70254 51.8 8.60254 52.4833 8.60254 53.15C8.60254 54.4833 8.91921 55.6833 9.55254 56.75C10.1859 57.8167 10.9692 58.7333 11.9025 59.5C13.1025 58 14.2192 56.3 15.2525 54.4C16.3192 52.5 17.2859 50.65 18.1525 48.85C19.0525 47.0167 19.8525 45.4833 20.5525 44.25C23.1525 39.6833 25.6525 36.15 28.0525 33.65C30.4859 31.1167 32.7359 29.85 34.8025 29.85C35.2359 29.85 35.6525 29.9 36.0525 30C36.1859 30.0333 36.2192 30.1167 36.1525 30.25C36.0859 30.3833 35.9859 30.4333 35.8525 30.4C35.7192 30.3667 35.5859 30.35 35.4525 30.35C35.3525 30.3167 35.2359 30.3 35.1025 30.3C34.1025 30.3 33.0192 30.8 31.8525 31.8C30.6859 32.7667 29.4859 34.1167 28.2525 35.85C27.0192 37.55 25.7859 39.5167 24.5525 41.75C24.9859 41.4833 25.4859 41.3 26.0525 41.2C26.6525 41.0667 27.2692 41 27.9025 41C28.8692 41 29.8359 41.1 30.8025 41.3C31.8025 41.5 32.6359 41.7333 33.3025 42C34.8025 40.8333 36.0025 39.3833 36.9025 37.65C37.8359 35.9167 38.3025 34.25 38.3025 32.65C38.3025 31.05 37.8859 29.7667 37.0525 28.8C36.2192 27.8333 35.1692 27.1 33.9025 26.6C32.6359 26.1 31.3025 25.7667 29.9025 25.6C28.5025 25.4333 27.2192 25.35 26.0525 25.35C24.1859 25.35 22.3192 25.55 20.4525 25.95C18.6192 26.35 16.9192 26.9333 15.3525 27.7C13.7859 28.4333 12.4525 29.3333 11.3525 30.4C10.4525 31.2667 9.60254 32.4167 8.80254 33.85C8.00254 35.2833 7.60254 36.7333 7.60254 38.2C7.60254 38.8 7.70254 39.3833 7.90254 39.95C8.23587 40.8833 8.83587 41.6167 9.70254 42.15C10.5692 42.65 11.5692 42.9 12.7025 42.9C13.1359 42.9 13.5859 42.85 14.0525 42.75C14.5192 42.65 14.9859 42.5333 15.4525 42.4H15.5525C15.6525 42.4 15.7025 42.45 15.7025 42.55C15.7025 42.6833 15.6192 42.7833 15.4525 42.85C14.5525 43.15 13.6192 43.3 12.6525 43.3C11.5192 43.3 10.4525 43.0833 9.45254 42.65C8.45254 42.1833 7.63587 41.5 7.00254 40.6C6.36921 39.7 6.05254 38.5833 6.05254 37.25C6.05254 36.2167 6.18587 35.2667 6.45254 34.4C6.75254 33.5333 7.15254 32.7167 7.65254 31.95C8.75254 30.3167 10.3025 28.9667 12.3025 27.9C14.3025 26.8333 16.5192 26.0333 18.9525 25.5C21.3859 24.9667 23.8025 24.7 26.2025 24.7C27.3359 24.7 28.6359 24.7833 30.1025 24.95C31.6025 25.1167 33.0859 25.4333 34.5525 25.9C36.0192 26.3333 37.3025 26.9667 38.4025 27.8C39.5359 28.6333 40.3192 29.7 40.7525 31C40.9525 31.6333 41.0525 32.3167 41.0525 33.05C41.0525 34.3833 40.7192 35.7333 40.0525 37.1C39.3859 38.4333 38.5525 39.6 37.5525 40.6C36.7859 41.4333 35.8525 42.1667 34.7525 42.8C36.3192 43.5667 37.4859 44.6167 38.2525 45.95C39.0192 47.25 39.4025 48.65 39.4025 50.15C39.4025 51.7167 39.0025 53.2833 38.2025 54.85C37.4025 56.4167 36.2192 57.8333 34.6525 59.1C33.1192 60.3667 31.2025 61.3333 28.9025 62C27.8359 62.3 26.6859 62.5333 25.4525 62.7C24.2525 62.8667 23.0192 62.95 21.7525 62.95C20.4525 62.95 19.1525 62.85 17.8525 62.65C16.5525 62.45 15.3025 62.1333 14.1025 61.7C13.9025 61.6333 13.6859 61.55 13.4525 61.45C13.2192 61.35 13.0025 61.2333 12.8025 61.1C11.0025 62.7 9.05254 63.75 6.95254 64.25C6.15254 64.45 5.35254 64.55 4.55254 64.55ZM26.6025 44.7C27.6692 44.7 28.6859 44.5333 29.6525 44.2C30.6525 43.8333 31.5859 43.3333 32.4525 42.7C31.8192 42.3 31.1025 42.0333 30.3025 41.9C29.5025 41.7333 28.5859 41.65 27.5525 41.65C26.5859 41.65 25.8192 41.85 25.2525 42.25C24.6859 42.65 24.4025 43.0667 24.4025 43.5C24.4025 43.8333 24.5692 44.1167 24.9025 44.35C25.2692 44.5833 25.8359 44.7 26.6025 44.7ZM28.6525 61.05C30.3525 60.3167 31.7692 59.35 32.9025 58.15C34.0692 56.9167 34.9525 55.5667 35.5525 54.1C36.1525 52.6333 36.4525 51.2 36.4525 49.8C36.4525 48.5333 36.2025 47.35 35.7025 46.25C35.2359 45.15 34.5025 44.2333 33.5025 43.5C32.4692 44 31.3359 44.4167 30.1025 44.75C28.9025 45.0833 27.6692 45.25 26.4025 45.25C25.4692 45.25 24.7692 45.1333 24.3025 44.9C23.8359 44.6333 23.5192 44.3667 23.3525 44.1C22.9192 44.9333 22.5025 45.8 22.1025 46.7C21.7025 47.6 21.2859 48.5 20.8525 49.4C19.9859 51.2 18.9359 53.1 17.7025 55.1C16.5025 57.1 15.0859 58.8833 13.4525 60.45C13.6525 60.5833 13.8525 60.6833 14.0525 60.75C14.2525 60.85 14.4525 60.9333 14.6525 61C15.7525 61.4 16.9192 61.7 18.1525 61.9C19.3859 62.1 20.6192 62.2 21.8525 62.2C23.1525 62.2 24.3859 62.0833 25.5525 61.85C26.7525 61.65 27.7859 61.3833 28.6525 61.05ZM43.7963 60.3C42.863 60.3 42.1796 60 41.7463 59.4C41.313 58.7667 41.0963 58 41.0963 57.1C41.0963 56.8333 41.113 56.5667 41.1463 56.3C41.213 56 41.2796 55.7 41.3463 55.4C41.713 54.0667 42.2796 52.5833 43.0463 50.95C43.8463 49.2833 44.613 47.8 45.3463 46.5C45.7796 45.7667 46.1796 45.25 46.5463 44.95C46.913 44.6167 47.313 44.3833 47.7463 44.25C48.1796 44.0833 48.6963 43.9 49.2963 43.7C49.463 43.6333 49.6296 43.5833 49.7963 43.55C49.963 43.5167 50.1463 43.4833 50.3463 43.45C49.6796 44.1167 48.9963 44.9167 48.2963 45.85C47.6296 46.7833 46.8963 48.0667 46.0963 49.7C45.663 50.5667 45.2296 51.5333 44.7963 52.6C44.3963 53.6667 44.0463 54.6667 43.7463 55.6C43.4463 56.5333 43.2796 57.2667 43.2463 57.8C43.213 58.4333 43.2963 58.8833 43.4963 59.15C43.6963 59.4167 43.963 59.55 44.2963 59.55C44.863 59.55 45.3963 59.35 45.8963 58.95C46.4296 58.55 46.8963 58.1333 47.2963 57.7C48.0296 56.8667 48.713 55.95 49.3463 54.95C50.013 53.95 50.663 52.8833 51.2963 51.75C51.3963 51.6167 51.4796 51.55 51.5463 51.55C51.6796 51.55 51.7463 51.65 51.7463 51.85C51.7463 52.0167 51.713 52.15 51.6463 52.25C51.0463 53.35 50.413 54.45 49.7463 55.55C49.0796 56.65 48.263 57.6833 47.2963 58.65C46.863 59.0833 46.3463 59.4667 45.7463 59.8C45.1796 60.1333 44.5296 60.3 43.7963 60.3ZM49.8963 40.65C49.5296 40.65 49.213 40.5167 48.9463 40.25C48.713 39.9833 48.5963 39.6667 48.5963 39.3C48.5963 38.8333 48.7796 38.4167 49.1463 38.05C49.5463 37.6833 49.9796 37.4667 50.4463 37.4C50.813 37.4 51.113 37.5333 51.3463 37.8C51.613 38.0333 51.7463 38.35 51.7463 38.75C51.7463 39.1833 51.563 39.6167 51.1963 40.05C50.8296 40.45 50.3963 40.65 49.8963 40.65ZM63.14 60.35C62.0067 60.35 61.19 59.9667 60.69 59.2C60.19 58.4 59.94 57.4167 59.94 56.25C59.94 55.0833 60.14 53.9333 60.54 52.8L61.04 51.35L59.19 54.2C58.7234 54.9333 58.1067 55.7667 57.34 56.7C56.6067 57.6 55.8234 58.3833 54.99 59.05C53.9234 59.9167 52.9567 60.35 52.09 60.35C51.2567 60.35 50.6067 60 50.14 59.3C49.7067 58.6 49.49 57.7167 49.49 56.65C49.49 55.9167 49.59 55.1833 49.79 54.45C50.29 52.5833 51.0567 50.8833 52.09 49.35C53.1234 47.7833 54.4234 46.4333 55.99 45.3C56.6567 44.8 57.5067 44.4 58.54 44.1C59.5734 43.7667 60.6067 43.6 61.64 43.6C62.04 43.6 62.44 43.6333 62.84 43.7C63.24 43.7667 63.6067 43.85 63.94 43.95C64.2067 43.35 64.5067 42.6833 64.84 41.95C65.2067 41.2167 65.5567 40.5 65.89 39.8C66.2567 39.0667 66.5567 38.4667 66.79 38C67.4567 36.6333 68.29 35 69.29 33.1C70.29 31.2 71.4567 29.4333 72.79 27.8C73.8234 26.5 75.0067 25.3667 76.34 24.4C77.7067 23.4 79.0234 22.9 80.29 22.9C81.0567 22.9 81.6234 23.1333 81.99 23.6C82.39 24.0667 82.59 24.6333 82.59 25.3C82.59 25.9 82.4734 26.45 82.24 26.95C81.7067 28.15 80.8567 29.4167 79.69 30.75C78.5567 32.0833 77.3234 33.3833 75.99 34.65C74.69 35.8833 73.5234 37 72.49 38C71.6234 38.8333 70.8567 39.5667 70.19 40.2C69.5234 40.8 68.9067 41.4 68.34 42C67.7734 42.6 67.1567 43.2667 66.49 44C65.7567 45.6667 65.0734 47.3333 64.44 49C63.84 50.6667 63.34 52.2167 62.94 53.65C62.5734 55.0833 62.39 56.2833 62.39 57.25C62.39 58.6167 62.8067 59.35 63.64 59.45C64.2067 59.45 64.74 59.2667 65.24 58.9C65.74 58.5333 66.1734 58.1333 66.54 57.7C67.3067 56.8667 68.0067 55.95 68.64 54.95C69.2734 53.95 69.9067 52.8833 70.54 51.75C70.64 51.6167 70.74 51.55 70.84 51.55C70.9734 51.55 71.04 51.65 71.04 51.85C71.04 52.0167 71.0067 52.15 70.94 52.25C70.34 53.35 69.69 54.45 68.99 55.55C68.3234 56.65 67.5067 57.6833 66.54 58.65C66.1067 59.0833 65.6067 59.4833 65.04 59.85C64.4734 60.1833 63.84 60.35 63.14 60.35ZM67.29 42.25C68.0567 41.3833 68.7734 40.6167 69.44 39.95C70.1067 39.25 70.9234 38.4 71.89 37.4C72.8234 36.4667 73.89 35.3667 75.09 34.1C76.3234 32.8333 77.4734 31.55 78.54 30.25C79.64 28.95 80.44 27.8 80.94 26.8C81.34 26 81.54 25.35 81.54 24.85C81.54 24.0167 81.1234 23.6 80.29 23.6C79.2567 23.6 78.1734 24.0833 77.04 25.05C75.94 25.9833 74.8567 27.2667 73.79 28.9C72.89 30.3 72.04 31.8333 71.24 33.5C70.44 35.1333 69.7067 36.7167 69.04 38.25C68.3734 39.7833 67.79 41.1167 67.29 42.25ZM53.14 58.8C53.74 58.8 54.4567 58.4 55.29 57.6C56.1567 56.7667 57.04 55.75 57.94 54.55C58.8734 53.3167 59.7234 52.1167 60.49 50.95C60.7234 50.6167 61.0234 50.0667 61.39 49.3C61.79 48.5333 62.2067 47.7167 62.64 46.85C63.0734 45.95 63.44 45.1667 63.74 44.5C63.54 44.4333 63.34 44.4 63.14 44.4C62.9734 44.4 62.79 44.4 62.59 44.4C61.5567 44.4 60.5234 44.6833 59.49 45.25C58.49 45.7833 57.59 46.5 56.79 47.4C55.6567 48.6333 54.7067 49.9667 53.94 51.4C53.1734 52.8 52.64 54.0333 52.34 55.1C52.1734 55.7 52.09 56.3167 52.09 56.95C52.09 57.45 52.1567 57.8833 52.29 58.25C52.4567 58.6167 52.74 58.8 53.14 58.8ZM82.3783 60.35C81.245 60.35 80.4283 59.9667 79.9283 59.2C79.4283 58.4 79.1783 57.4167 79.1783 56.25C79.1783 55.0833 79.3783 53.9333 79.7783 52.8L80.2783 51.35L78.4283 54.2C77.9617 54.9333 77.345 55.7667 76.5783 56.7C75.845 57.6 75.0617 58.3833 74.2283 59.05C73.1617 59.9167 72.195 60.35 71.3283 60.35C70.495 60.35 69.845 60 69.3783 59.3C68.945 58.6 68.7283 57.7167 68.7283 56.65C68.7283 55.9167 68.8283 55.1833 69.0283 54.45C69.5283 52.5833 70.295 50.8833 71.3283 49.35C72.3617 47.7833 73.6617 46.4333 75.2283 45.3C75.895 44.8 76.745 44.4 77.7783 44.1C78.8117 43.7667 79.845 43.6 80.8783 43.6C81.2783 43.6 81.6783 43.6333 82.0783 43.7C82.4783 43.7667 82.845 43.85 83.1783 43.95C83.445 43.35 83.745 42.6833 84.0783 41.95C84.445 41.2167 84.795 40.5 85.1283 39.8C85.495 39.0667 85.795 38.4667 86.0283 38C86.695 36.6333 87.5283 35 88.5283 33.1C89.5283 31.2 90.695 29.4333 92.0283 27.8C93.0617 26.5 94.245 25.3667 95.5783 24.4C96.945 23.4 98.2617 22.9 99.5283 22.9C100.295 22.9 100.862 23.1333 101.228 23.6C101.628 24.0667 101.828 24.6333 101.828 25.3C101.828 25.9 101.712 26.45 101.478 26.95C100.945 28.15 100.095 29.4167 98.9283 30.75C97.795 32.0833 96.5617 33.3833 95.2283 34.65C93.9283 35.8833 92.7617 37 91.7283 38C90.8617 38.8333 90.095 39.5667 89.4283 40.2C88.7617 40.8 88.145 41.4 87.5783 42C87.0117 42.6 86.395 43.2667 85.7283 44C84.995 45.6667 84.3117 47.3333 83.6783 49C83.0783 50.6667 82.5783 52.2167 82.1783 53.65C81.8117 55.0833 81.6283 56.2833 81.6283 57.25C81.6283 58.6167 82.045 59.35 82.8783 59.45C83.445 59.45 83.9783 59.2667 84.4783 58.9C84.9783 58.5333 85.4117 58.1333 85.7783 57.7C86.545 56.8667 87.245 55.95 87.8783 54.95C88.5117 53.95 89.145 52.8833 89.7783 51.75C89.8783 51.6167 89.9783 51.55 90.0783 51.55C90.2117 51.55 90.2783 51.65 90.2783 51.85C90.2783 52.0167 90.245 52.15 90.1783 52.25C89.5783 53.35 88.9283 54.45 88.2283 55.55C87.5617 56.65 86.745 57.6833 85.7783 58.65C85.345 59.0833 84.845 59.4833 84.2783 59.85C83.7117 60.1833 83.0783 60.35 82.3783 60.35ZM86.5283 42.25C87.295 41.3833 88.0117 40.6167 88.6783 39.95C89.345 39.25 90.1617 38.4 91.1283 37.4C92.0617 36.4667 93.1283 35.3667 94.3283 34.1C95.5617 32.8333 96.7117 31.55 97.7783 30.25C98.8783 28.95 99.6783 27.8 100.178 26.8C100.578 26 100.778 25.35 100.778 24.85C100.778 24.0167 100.362 23.6 99.5283 23.6C98.495 23.6 97.4117 24.0833 96.2783 25.05C95.1783 25.9833 94.095 27.2667 93.0283 28.9C92.1283 30.3 91.2783 31.8333 90.4783 33.5C89.6783 35.1333 88.945 36.7167 88.2783 38.25C87.6117 39.7833 87.0283 41.1167 86.5283 42.25ZM72.3783 58.8C72.9783 58.8 73.695 58.4 74.5283 57.6C75.395 56.7667 76.2783 55.75 77.1783 54.55C78.1117 53.3167 78.9617 52.1167 79.7283 50.95C79.9617 50.6167 80.2617 50.0667 80.6283 49.3C81.0283 48.5333 81.445 47.7167 81.8783 46.85C82.3117 45.95 82.6783 45.1667 82.9783 44.5C82.7783 44.4333 82.5783 44.4 82.3783 44.4C82.2117 44.4 82.0283 44.4 81.8283 44.4C80.795 44.4 79.7617 44.6833 78.7283 45.25C77.7283 45.7833 76.8283 46.5 76.0283 47.4C74.895 48.6333 73.945 49.9667 73.1783 51.4C72.4117 52.8 71.8783 54.0333 71.5783 55.1C71.4117 55.7 71.3283 56.3167 71.3283 56.95C71.3283 57.45 71.395 57.8833 71.5283 58.25C71.695 58.6167 71.9783 58.8 72.3783 58.8ZM99.2166 41.4C98.7833 41.4 98.4333 41.2667 98.1666 41C97.8999 40.7333 97.7666 40.4 97.7666 40C97.7666 39.4333 97.9833 38.95 98.4166 38.55C98.8499 38.15 99.3166 37.95 99.8166 37.95C100.25 37.95 100.6 38.0833 100.867 38.35C101.133 38.5833 101.267 38.9 101.267 39.3C101.267 39.8333 101.05 40.3167 100.617 40.75C100.183 41.1833 99.7166 41.4 99.2166 41.4ZM94.2666 60.25C93.6333 60.25 93.0666 60.0667 92.5666 59.7C92.0666 59.3 91.8166 58.65 91.8166 57.75C91.8166 57.4833 91.8333 57.2167 91.8666 56.95C91.8999 56.6833 91.9666 56.3833 92.0666 56.05C92.3999 54.8833 92.8833 53.6333 93.5166 52.3C94.1833 50.9667 94.8499 49.5333 95.5166 48C95.6833 47.6 95.8333 47.2 95.9666 46.8C96.0999 46.4 96.1666 46.05 96.1666 45.75C96.1666 45.15 95.8833 44.85 95.3166 44.85C94.8499 44.85 94.4166 45.0333 94.0166 45.4C93.6499 45.7667 93.3333 46.1833 93.0666 46.65C92.7999 47.1167 92.5833 47.5167 92.4166 47.85C91.8166 49.05 91.2833 50.0833 90.8166 50.95C90.3833 51.7833 89.8999 52.6833 89.3666 53.65C89.1999 53.9167 89.0833 54.05 89.0166 54.05C88.8833 54.05 88.8166 53.9333 88.8166 53.7C88.8166 53.5333 88.8666 53.35 88.9666 53.15C89.3999 52.3833 89.8333 51.5833 90.2666 50.75C90.6999 49.8833 91.0833 49.1 91.4166 48.4C91.7833 47.7 92.0166 47.2333 92.1166 47C92.5499 46.1333 93.0666 45.4 93.6666 44.8C94.2999 44.2 95.1333 43.9 96.1666 43.9C97.0999 43.9 97.7333 44.1 98.0666 44.5C98.3999 44.8667 98.5666 45.3333 98.5666 45.9C98.5666 46.5 98.4333 47.1 98.1666 47.7C97.4999 49.3 96.7999 50.7833 96.0666 52.15C95.3666 53.5167 94.7333 55.05 94.1666 56.75C94.0999 57.0167 94.0333 57.2667 93.9666 57.5C93.9333 57.7333 93.9166 57.95 93.9166 58.15C93.9166 58.9833 94.2499 59.4 94.9166 59.4C95.3833 59.4 95.8833 59.2333 96.4166 58.9C96.9499 58.5333 97.4166 58.1333 97.8166 57.7C98.5833 56.8667 99.2833 55.95 99.9166 54.95C100.583 53.95 101.233 52.8333 101.867 51.6C101.9 51.4667 101.967 51.4 102.067 51.4C102.2 51.4 102.267 51.55 102.267 51.85C102.267 52.05 102.233 52.2 102.167 52.3C101.567 53.4 100.933 54.5 100.267 55.6C99.5999 56.6667 98.7833 57.6833 97.8166 58.65C97.3499 59.1167 96.8166 59.5 96.2166 59.8C95.6499 60.1 94.9999 60.25 94.2666 60.25ZM110.727 60.3C109.76 60.3 108.994 60 108.427 59.4C107.894 58.8 107.627 58.05 107.627 57.15C107.627 56.7167 107.71 56.2167 107.877 55.65C108.344 54.1833 109.077 52.7333 110.077 51.3C111.11 49.8333 111.96 48.3833 112.627 46.95C112.86 46.4833 112.977 46.0667 112.977 45.7C112.977 45.3333 112.86 45.0667 112.627 44.9C112.427 44.7 112.177 44.6 111.877 44.6C111.444 44.6 110.894 44.7833 110.227 45.15C109.594 45.4833 108.86 46.1333 108.027 47.1C107.527 47.7 106.96 48.4333 106.327 49.3C105.694 50.1667 105.177 50.95 104.777 51.65C104.11 52.7833 103.51 53.9333 102.977 55.1C102.444 56.2333 101.977 57.2833 101.577 58.25C101.244 59.0167 100.844 59.5167 100.377 59.75C99.9105 59.95 99.4605 60.0333 99.0271 60C98.5938 59.9667 98.2605 59.9667 98.0271 60C98.9605 58.1667 99.8771 56.2333 100.777 54.2C101.677 52.1667 102.444 50.1333 103.077 48.1C103.377 47.1667 103.627 46.2667 103.827 45.4C104.027 44.5 104.11 43.9167 104.077 43.65V43.55C104.077 43.2833 104.21 43.2167 104.477 43.35C104.91 43.5833 105.21 43.9333 105.377 44.4C105.544 44.8333 105.627 45.3333 105.627 45.9C105.627 46.5333 105.544 47.2167 105.377 47.95C105.21 48.65 105.01 49.2833 104.777 49.85C105.21 49.25 105.677 48.65 106.177 48.05C106.677 47.4167 107.227 46.8167 107.827 46.25C108.527 45.55 109.277 44.95 110.077 44.45C110.877 43.9167 111.744 43.65 112.677 43.65C113.577 43.65 114.227 43.85 114.627 44.25C115.06 44.65 115.277 45.1833 115.277 45.85C115.277 46.55 115.077 47.35 114.677 48.25C114.244 49.2833 113.71 50.3167 113.077 51.35C112.477 52.3833 111.927 53.3833 111.427 54.35C111.327 54.55 111.16 54.8667 110.927 55.3C110.727 55.7 110.544 56.15 110.377 56.65C110.31 56.8833 110.244 57.1333 110.177 57.4C110.11 57.6333 110.077 57.8833 110.077 58.15C110.077 58.4833 110.144 58.8 110.277 59.1C110.444 59.3667 110.744 59.5 111.177 59.5C111.744 59.5 112.277 59.3167 112.777 58.95C113.31 58.55 113.76 58.1333 114.127 57.7C114.894 56.8667 115.594 55.95 116.227 54.95C116.894 53.9167 117.544 52.8333 118.177 51.7C118.277 51.5667 118.344 51.5 118.377 51.5C118.51 51.5 118.577 51.65 118.577 51.95C118.577 52.15 118.544 52.3 118.477 52.4C117.877 53.5 117.244 54.5833 116.577 55.65C115.91 56.6833 115.094 57.6833 114.127 58.65C113.694 59.0833 113.194 59.4667 112.627 59.8C112.06 60.1333 111.427 60.3 110.727 60.3ZM116.186 73.65C115.652 73.7833 115.119 73.85 114.586 73.85C113.586 73.85 112.836 73.6 112.336 73.1C111.836 72.6333 111.586 72.05 111.586 71.35C111.586 70.75 111.786 70.1 112.186 69.4C112.586 68.7333 113.186 68.1333 113.986 67.6C115.019 66.9 115.952 66.3333 116.786 65.9C117.652 65.5 118.586 65.0833 119.586 64.65C120.586 64.25 121.836 63.7 123.336 63C123.869 61.9333 124.386 60.7167 124.886 59.35C125.386 57.9833 125.869 56.6333 126.336 55.3C126.836 53.9667 127.302 52.8167 127.736 51.85C127.602 51.9833 127.336 52.3333 126.936 52.9C126.536 53.4667 126.236 53.9 126.036 54.2C125.536 54.8667 124.919 55.6833 124.186 56.65C123.452 57.5833 122.669 58.3833 121.836 59.05C120.769 59.9167 119.802 60.35 118.936 60.35C118.102 60.35 117.452 60 116.986 59.3C116.552 58.6 116.336 57.7167 116.336 56.65C116.336 55.9167 116.436 55.1833 116.636 54.45C117.669 50.6167 119.736 47.5667 122.836 45.3C123.469 44.8333 124.252 44.4667 125.186 44.2C126.119 43.9 127.052 43.75 127.986 43.75C129.286 43.75 130.419 44.0333 131.386 44.6L131.536 44.45C132.302 43.3167 133.069 42.3667 133.836 41.6C134.602 40.8333 135.519 40.3333 136.586 40.1C135.452 41.3333 134.369 42.9 133.336 44.8C132.302 46.6667 131.352 48.65 130.486 50.75C129.652 52.85 128.886 54.85 128.186 56.75C127.486 58.6167 126.886 60.1833 126.386 61.45C128.219 60.5167 129.869 59.2667 131.336 57.7C132.836 56.1 134.102 54.3667 135.136 52.5C135.369 52.0333 135.619 51.8 135.886 51.8C135.952 51.8 135.986 51.85 135.986 51.95C135.986 52.0833 135.919 52.2667 135.786 52.5C135.186 53.5667 134.536 54.6167 133.836 55.65C133.169 56.65 132.402 57.5833 131.536 58.45C130.802 59.25 129.969 59.9833 129.036 60.65C128.136 61.3167 127.136 61.9 126.036 62.4C125.236 64.2667 124.386 65.9833 123.486 67.55C122.586 69.1167 121.552 70.4333 120.386 71.5C119.219 72.5667 117.819 73.2833 116.186 73.65ZM119.986 58.8C120.652 58.8 121.352 58.4667 122.086 57.8C122.819 57.1 123.552 56.2667 124.286 55.3C125.019 54.3 125.669 53.35 126.236 52.45C126.836 51.5167 127.286 50.8 127.586 50.3C128.086 49.5333 128.619 48.7167 129.186 47.85C129.752 46.9833 130.402 46.0333 131.136 45C130.502 44.6667 129.819 44.5 129.086 44.5C128.119 44.5 127.152 44.7667 126.186 45.3C125.252 45.8333 124.402 46.5333 123.636 47.4C122.502 48.6333 121.552 49.9667 120.786 51.4C120.019 52.8 119.486 54.0333 119.186 55.1C119.019 55.7 118.936 56.3167 118.936 56.95C118.936 57.45 119.002 57.8833 119.136 58.25C119.302 58.6167 119.586 58.8 119.986 58.8ZM115.886 72.6C117.052 72.2333 118.069 71.5833 118.936 70.65C119.802 69.75 120.552 68.7 121.186 67.5C121.852 66.3333 122.419 65.15 122.886 63.95C121.852 64.4833 120.519 65.05 118.886 65.65C117.286 66.2833 115.769 67.15 114.336 68.25C113.702 68.75 113.236 69.2667 112.936 69.8C112.602 70.3333 112.436 70.8333 112.436 71.3C112.436 71.7333 112.586 72.1 112.886 72.4C113.186 72.7 113.652 72.85 114.286 72.85C114.519 72.85 114.769 72.8333 115.036 72.8C115.302 72.7667 115.586 72.7 115.886 72.6ZM136.569 60.4C135.869 60.4 135.219 60.2667 134.619 60C134.052 59.7 133.585 59.2 133.219 58.5C132.952 57.9 132.819 57.25 132.819 56.55C132.819 55.8167 132.952 55.1333 133.219 54.5C133.485 53.9333 133.785 53.4333 134.119 53C134.452 52.5667 134.819 52.3167 135.219 52.25C135.519 51.5833 135.969 50.7 136.569 49.6C137.202 48.5 137.902 47.4 138.669 46.3C139.469 45.2 140.219 44.3167 140.919 43.65C141.085 43.4833 141.369 43.2167 141.769 42.85C142.202 42.45 142.685 42.0667 143.219 41.7C143.785 41.3333 144.302 41.1167 144.769 41.05C144.869 41.0167 145.002 41 145.169 41C145.569 41 145.869 41.1 146.069 41.3C146.269 41.5 146.369 41.7333 146.369 42C146.369 42.2667 146.269 42.5333 146.069 42.8C145.869 43.0667 145.552 43.2833 145.119 43.45C144.952 43.4833 144.702 43.5333 144.369 43.6C144.069 43.6667 143.619 43.7 143.019 43.7C142.785 44.0333 142.669 44.5 142.669 45.1C142.669 45.7667 142.769 46.5167 142.969 47.35C143.202 48.1833 143.419 49 143.619 49.8C143.852 50.5667 143.969 51.2167 143.969 51.75C144.035 52.9833 143.835 54.2333 143.369 55.5C142.935 56.7333 142.235 57.7833 141.269 58.65L140.569 59.15C140.669 59.1833 140.769 59.2167 140.869 59.25C140.969 59.25 141.069 59.25 141.169 59.25C141.735 59.25 142.369 59.0833 143.069 58.75C143.769 58.3833 144.385 57.9333 144.919 57.4C145.719 56.6333 146.402 55.8167 146.969 54.95C147.569 54.0833 148.119 53.1833 148.619 52.25C148.652 52.1167 148.735 52.05 148.869 52.05C149.035 52.05 149.119 52.1833 149.119 52.45C149.119 52.5833 149.069 52.7333 148.969 52.9C148.469 53.8333 147.852 54.8167 147.119 55.85C146.419 56.85 145.685 57.7 144.919 58.4C144.319 58.9333 143.669 59.3333 142.969 59.6C142.302 59.8333 141.735 59.95 141.269 59.95C140.935 59.95 140.669 59.9167 140.469 59.85C140.269 59.7833 140.085 59.6833 139.919 59.55C139.452 59.7833 138.919 59.9833 138.319 60.15C137.752 60.3167 137.169 60.4 136.569 60.4ZM138.469 59.1C139.135 58.6333 139.652 58.0333 140.019 57.3C140.419 56.5667 140.719 55.7833 140.919 54.95C141.185 53.95 141.335 52.9167 141.369 51.85C141.435 50.7833 141.469 49.8167 141.469 48.95V47.2C141.469 46.5 141.552 45.7833 141.719 45.05C141.919 44.3167 142.119 43.8667 142.319 43.7C141.819 43.9 141.269 44.35 140.669 45.05C140.069 45.7167 139.469 46.5167 138.869 47.45C138.269 48.35 137.719 49.2333 137.219 50.1C136.752 50.9667 136.385 51.6833 136.119 52.25C136.752 52.2167 137.185 52.4 137.419 52.8C137.652 53.1667 137.719 53.4333 137.619 53.6C137.352 53.5333 137.169 53.5 137.069 53.5C136.569 53.5 136.102 53.6833 135.669 54.05C135.235 54.3833 134.869 54.8833 134.569 55.55C134.269 56.1833 134.119 56.8 134.119 57.4C134.119 58.2 134.352 58.7833 134.819 59.15C135.285 59.5167 135.835 59.7 136.469 59.7C137.202 59.7 137.869 59.5 138.469 59.1Z" fill="#0D0630"/>
</svg>
